<svg width="417" height="155" viewBox="0 0 417 155" fill="none" xmlns="http://www.w3.org/2000/svg">
<path d="M69.48 1.79999C60.84 36.6 47.16 69.24 24.6 97.32H87.48V1.79999H107.88V97.32H131.88V113.4H107.88V153H86.76V113.4H0.36V98.76C26.04 68.04 40.92 40.44 50.28 1.55999L69.48 1.79999ZM145.142 77.4C145.142 29.64 163.382 0.119994 207.062 0.119994C250.502 0.119994 268.502 29.88 268.502 77.4C268.502 122.52 250.502 154.68 207.062 154.68C163.382 154.68 145.142 122.76 145.142 77.4ZM180.422 129.48L219.302 18.12C215.702 17.4 211.622 16.92 207.062 16.92C172.982 16.92 164.342 40.44 164.342 77.4C164.342 99.96 168.182 119.16 180.422 129.48ZM207.062 137.88C240.662 137.88 249.302 111.72 249.302 77.4C249.302 51.96 245.222 32.76 231.542 23.4L192.182 135.72C196.502 137.16 201.302 137.88 207.062 137.88ZM353.777 1.79999C345.137 36.6 331.457 69.24 308.897 97.32H371.777V1.79999H392.177V97.32H416.177V113.4H392.177V153H371.057V113.4H284.657V98.76C310.337 68.04 325.217 40.44 334.577 1.55999L353.777 1.79999Z" fill="black"/>
</svg>
