<svg width="24" height="24" viewBox="0 0 24 24" fill="none" xmlns="http://www.w3.org/2000/svg">
<path d="M15.7872 14H18.4904C19.3651 14 20.1384 14.5685 20.3993 15.4035L21.8522 20.0526C22.154 21.0185 21.4324 22 20.4205 22H3.50105C2.48909 22 1.76748 21.0185 2.06933 20.0526L3.52218 15.4035C3.7831 14.5685 4.55637 14 5.43114 14H8.13428M15.7872 14C17.0044 12.211 17.9608 10.2947 17.9608 8.44143C17.9608 4.88393 15.2745 2 11.9608 2C8.64705 2 5.96076 4.88393 5.96076 8.44143C5.96076 10.2947 6.91715 12.211 8.13428 14M15.7872 14C14.9641 15.2099 14.0217 16.3615 13.1752 17.3959L13.1478 17.4294C12.5252 18.1902 11.3963 18.1902 10.7737 17.4294L10.7463 17.3959C9.89983 16.3615 8.95743 15.2099 8.13428 14M13.9608 8C13.9608 9.10457 13.0653 10 11.9608 10C10.8562 10 9.96076 9.10457 9.96076 8C9.96076 6.89543 10.8562 6 11.9608 6C13.0653 6 13.9608 6.89543 13.9608 8Z" stroke="white" stroke-width="2" stroke-linecap="round" stroke-linejoin="round"/>
</svg>
