<svg width="44" height="40" viewBox="0 0 44 40" fill="none" xmlns="http://www.w3.org/2000/svg">
<path d="M12.5263 6.23529C6.71279 6.23529 2 10.9758 2 16.8235V29.5294C2 30.699 2.94256 31.6471 4.10526 31.6471H39.8947C41.0574 31.6471 42 30.699 42 29.5294V16.8235C42 13.8997 40.8218 11.2526 38.9169 9.33652M12.5263 6.23529H29.3684M12.5263 6.23529C18.3398 6.23529 23.0526 10.9758 23.0526 16.8235V29.5294C23.0526 30.699 22.1101 31.6471 20.9474 31.6471H12.5263M33.5789 2H31.4737C30.311 2 29.3684 2.9481 29.3684 4.11765V14.7059M10.4211 23.1765H14.6316M16.8421 38V31.6471M27.1579 38V31.6471" stroke="#0B0D12" stroke-width="3" stroke-linecap="square" stroke-linejoin="round"/>
</svg>
