<svg width="849" height="849" viewBox="0 0 849 849" fill="none" xmlns="http://www.w3.org/2000/svg">
<rect x="448.992" y="423.98" width="35" height="35" rx="2.5" transform="rotate(135 448.992 423.98)" stroke="#2B2BD9" stroke-width="5"/>
<rect x="505.58" y="424.264" width="115" height="115" rx="2.5" transform="rotate(135 505.58 424.264)" stroke="#2B2BD9" stroke-width="5"/>
<rect x="562.15" y="424.264" width="195" height="195" rx="2.5" transform="rotate(135 562.15 424.264)" stroke="#2B2BD9" stroke-width="5"/>
<rect x="618.718" y="424.264" width="275" height="275" rx="2.5" transform="rotate(135 618.718 424.264)" stroke="#2B2BD9" stroke-width="5"/>
<rect x="675.287" y="424.264" width="355" height="355" rx="2.5" transform="rotate(135 675.287 424.264)" stroke="#2B2BD9" stroke-width="5"/>
<rect x="731.855" y="424.264" width="435" height="435" rx="2.5" transform="rotate(135 731.855 424.264)" stroke="#2B2BD9" stroke-width="5"/>
<rect x="788.423" y="424.264" width="515" height="515" rx="2.5" transform="rotate(135 788.423 424.264)" stroke="#2B2BD9" stroke-width="5"/>
<rect x="844.992" y="424.264" width="595" height="595" rx="2.5" transform="rotate(135 844.992 424.264)" stroke="#2B2BD9" stroke-width="5"/>
</svg>
