<svg width="201" height="233" viewBox="0 0 201 233" fill="none" xmlns="http://www.w3.org/2000/svg"><path d="M64.263 185.455v.591c0 7.382 4.782 12.698 12.255 13.289l98.337 8.268V233l-106.706-9.155c-7.473-.59-12.255-5.906-12.255-13.584v-27.464C22.417 170.985 0 143.521 0 95.09 0 26.873 44.536 0 100.429 0c55.894 0 99.832 26.873 99.832 95.09 0 72.646-44.237 93.023-106.706 94.795-10.462-.591-20.325-2.067-29.292-4.43zm36.166-18.9c41.547 0 72.931-18.604 72.931-71.465 0-52.86-31.384-71.465-72.931-71.465-41.845 0-73.528 18.31-73.528 71.465 0 53.156 31.683 71.465 73.528 71.465z" fill="#000"/></svg>