<svg width="203" height="235" viewBox="0 0 203 235" fill="none" xmlns="http://www.w3.org/2000/svg"><path d="M65.3 188.161c.105 1.559.432 3.014.958 4.337l.465-.185c.268.674.59 1.311.962 1.909l-.425.264c.79 1.269 1.8 2.368 3.002 3.262l.299-.401c.564.419 1.172.792 1.823 1.114l-.222.448a14.221 14.221 0 004.246 1.301l.073-.495c.352.052.71.092 1.076.121h.002l1.025.087-.042.498 4.097.344.042-.498 2.049.172-.042.499 4.097.344.042-.498 2.049.172-.042.498 4.097.345.042-.498 2.05.172-.043.498 4.098.345.041-.499 2.049.173-.042.498 4.098.344.042-.498 2.048.172-.042.499 4.098.344.042-.498 2.048.172-.042.499 4.098.344.042-.498 2.048.172-.042.498 4.098.345.042-.498 2.048.172-.041.498 4.097.345.042-.499 2.048.173-.041.498 4.097.344.042-.498 2.049.172-.042.499 4.097.344.042-.498 2.049.172-.042.498 4.097.345.042-.498 2.049.172-.042.498 4.097.345.042-.498 2.049.172-.042.498 4.097.345.042-.499 2.049.173-.042.498 4.097.344.042-.498 2.049.172-.042.499 4.097.344.042-.498 1.025.086a.5.5 0 01.458.498v1.058h-.5v4.233h.5v2.117h-.5v4.232h.5v2.117h-.5v4.233h.5v2.116h-.5v4.233h.5V234a.499.499 0 01-.543.498l-.988-.085.043-.498-3.952-.339-.043.498-1.976-.169.043-.498-3.953-.339-.042.498-1.976-.17.042-.498-3.952-.339-.042.498-1.976-.169.042-.499-3.952-.339-.043.499-1.976-.17.043-.498-3.952-.339-.043.498-1.976-.17.043-.498-3.952-.339-.043.498-1.976-.169.043-.498-3.952-.339-.043.498-1.976-.17.043-.498-3.952-.339-.043.498-1.976-.169.043-.498-3.952-.34-.043.499-1.976-.17.043-.498-3.952-.339-.043.498-1.976-.169.042-.499-3.952-.339-.042.498-1.976-.169.042-.498-3.952-.339-.042.498-1.977-.17.043-.498-3.952-.339-.043.498-1.976-.169.043-.498-3.952-.339-.043.498-1.976-.17.043-.498-3.952-.339-.043.498-1.976-.169.043-.499-3.952-.339-.043.499-1.976-.17.043-.498-3.952-.339-.043.498-1.976-.17.043-.498-3.953-.339-.042.498-.985-.084h-.002a17.087 17.087 0 01-1.156-.131l.074-.495c-1.573-.233-3.012-.687-4.296-1.336l-.226.446a12.743 12.743 0 01-1.99-1.246l.304-.397a11.857 11.857 0 01-2.985-3.356l-.43.257a13.348 13.348 0 01-1.017-2.111l.467-.178c-.508-1.34-.822-2.816-.923-4.405l-.499.031a18.345 18.345 0 01-.036-1.162v-.915h.5v-3.662h-.5v-1.831h.5v-3.662h-.5v-1.831h.5v-3.662h-.5v-1.831h.5v-3.662h-.5v-1.83h.5v-3.662h-.5v-.563l-.598-.215.171-.47a98.091 98.091 0 01-3.661-1.414l-.19.463a97.16 97.16 0 01-1.816-.766l.2-.458a91.646 91.646 0 01-3.569-1.638l-.218.449a88.384 88.384 0 01-1.765-.88l.228-.445a87.183 87.183 0 01-3.45-1.87l-.249.434a85.468 85.468 0 01-1.702-1l.258-.428a81.975 81.975 0 01-3.31-2.107l-.278.415a83.037 83.037 0 01-1.627-1.121l.289-.409a76.846 76.846 0 01-3.145-2.346l-.31.393a76.972 76.972 0 01-1.536-1.241l.319-.385a74.56 74.56 0 01-2.956-2.582l-.338.368a75.572 75.572 0 01-1.436-1.357l.349-.359a73.671 73.671 0 01-2.742-2.806l-.367.339a72.039 72.039 0 01-1.324-1.467l.376-.33a74.198 74.198 0 01-2.51-3.016l-.392.309a72.322 72.322 0 01-1.204-1.57l.401-.299a74.893 74.893 0 01-2.262-3.204l-.416.278a76.317 76.317 0 01-1.075-1.658l.423-.266a77.181 77.181 0 01-2.01-3.375l-.435.245a80.21 80.21 0 01-.944-1.728l.442-.234a81.504 81.504 0 01-1.752-3.513l-.453.212a83.657 83.657 0 01-.816-1.797l.457-.201a85.656 85.656 0 01-1.498-3.626l-.466.181a90.213 90.213 0 01-.694-1.855l.47-.17a91.547 91.547 0 01-1.254-3.719l-.477.15a97.213 97.213 0 01-.57-1.881l.48-.14a98.933 98.933 0 01-1.021-3.789l-.485.12a101.95 101.95 0 01-.459-1.922l.488-.111c-.288-1.26-.556-2.541-.803-3.841l-.491.093a102.37 102.37 0 01-.35-1.936l.492-.084a116.618 116.618 0 01-.599-3.878l-.495.068c-.09-.649-.174-1.302-.253-1.96l.496-.06a126.59 126.59 0 01-.41-3.906l-.498.045a119.73 119.73 0 01-.16-1.954l.498-.037a138.088 138.088 0 01-.236-3.917l-.5.023c-.03-.655-.056-1.314-.077-1.977l.5-.016a150.427 150.427 0 01-.076-3.92l-.5.004a156.316 156.316 0 010-2.024l.5.004c.01-1.363.036-2.71.08-4.039l-.499-.017c.023-.677.05-1.35.082-2.018l.5.024c.064-1.362.148-2.707.25-4.034l-.499-.039c.052-.675.11-1.347.17-2.013l.499.046c.125-1.358.27-2.696.435-4.016l-.496-.062c.084-.674.173-1.344.268-2.009l.495.07c.19-1.347.402-2.674.634-3.98l-.492-.088c.12-.673.244-1.34.374-2.002l.49.096c.262-1.33.545-2.64.849-3.93l-.487-.114c.158-.668.32-1.33.49-1.988l.484.125a98.3 98.3 0 011.082-3.88l-.48-.144c.198-.654.4-1.302.609-1.945l.476.155a91.27 91.27 0 011.329-3.809l-.468-.175c.238-.636.482-1.266.732-1.89l.464.185a85.473 85.473 0 011.59-3.713l-.456-.207c.28-.615.567-1.223.86-1.825l.45.218a80.833 80.833 0 011.857-3.59l-.439-.242a79.69 79.69 0 011.002-1.769l.432.252a77.415 77.415 0 012.121-3.43l-.418-.274c.373-.57.753-1.132 1.139-1.688l.41.285a75.266 75.266 0 012.389-3.252l-.395-.307a75.22 75.22 0 011.265-1.585l.386.317a74.463 74.463 0 012.645-3.05l-.369-.338c.458-.5.922-.994 1.392-1.48l.36.348a74.492 74.492 0 012.882-2.825l-.34-.367c.496-.46.999-.915 1.507-1.362l.33.375a76.438 76.438 0 013.1-2.585l-.31-.392a78 78 0 011.61-1.24l.3.401a79.163 79.163 0 013.291-2.336l-.279-.415a77.38 77.38 0 011.698-1.111l.269.421a83.178 83.178 0 013.456-2.084l-.248-.434a85.96 85.96 0 011.775-.985l.238.44a88.362 88.362 0 013.594-1.835l-.217-.45a91.9 91.9 0 011.842-.863l.207.455a94.283 94.283 0 013.708-1.592l-.187-.464a98.588 98.588 0 011.885-.74l.177.468c1.252-.476 2.52-.93 3.802-1.36l-.159-.474c.639-.215 1.281-.423 1.928-.627l.15.477c1.276-.401 2.567-.78 3.871-1.138l-.132-.482a113.82 113.82 0 011.966-.52l.123.484c1.296-.33 2.604-.64 3.925-.93l-.107-.488c.658-.144 1.32-.283 1.984-.417l.099.49c1.313-.265 2.638-.51 3.973-.736l-.083-.493c.662-.111 1.326-.218 1.993-.32l.076.494a136.95 136.95 0 014-.553l-.06-.496c.667-.082 1.338-.16 2.01-.233l.054.497c1.33-.145 2.67-.272 4.018-.38l-.04-.5c.672-.054 1.347-.104 2.024-.15l.034.499c1.334-.09 2.677-.164 4.027-.22l-.021-.5c.675-.029 1.351-.053 2.03-.073l.015.5c1.337-.04 2.68-.064 4.032-.072l-.003-.5a174.037 174.037 0 012.032 0l-.003.5c1.348.008 2.689.031 4.022.071l.015-.5c.676.02 1.352.045 2.025.073l-.021.5c1.347.056 2.686.13 4.016.22l.034-.5c.675.046 1.348.096 2.018.15l-.04.5c1.345.108 2.681.235 4.007.38l.055-.498c.67.073 1.339.15 2.005.233l-.061.496c1.34.165 2.671.349 3.99.551l.076-.494c.665.102 1.328.21 1.988.32l-.084.494c1.333.225 2.654.47 3.963.735l.099-.49c.663.134 1.322.273 1.978.417l-.107.488c1.317.29 2.622.6 3.914.93l.124-.484c.657.168 1.31.341 1.96.52l-.133.482c1.301.359 2.588.738 3.861 1.14l.15-.477c.644.204 1.285.413 1.922.628l-.16.474a98.82 98.82 0 013.79 1.362l.178-.467c.63.242 1.257.489 1.879.742l-.189.463a92.665 92.665 0 013.695 1.596l.209-.454c.616.282 1.227.57 1.834.865l-.218.45a87.366 87.366 0 013.58 1.84l.238-.44c.594.324 1.183.653 1.767.99l-.249.433a82.43 82.43 0 013.44 2.091l.27-.42a80.99 80.99 0 011.689 1.115l-.28.413a78.26 78.26 0 013.272 2.345l.302-.4c.539.408 1.072.823 1.6 1.244l-.312.391a75.083 75.083 0 013.078 2.593l.332-.373a71.47 71.47 0 011.497 1.367l-.342.364a75.594 75.594 0 012.859 2.833l.361-.345c.466.487.926.982 1.38 1.483l-.371.336c.898.991 1.771 2.01 2.62 3.058l.389-.315c.423.523.841 1.052 1.252 1.589l-.397.304a75.056 75.056 0 012.363 3.258l.412-.283c.382.557.757 1.12 1.126 1.691l-.42.272a77.327 77.327 0 012.096 3.433l.433-.25c.336.584.665 1.173.988 1.77l-.439.238a80.451 80.451 0 011.832 3.592l.451-.216c.288.602.571 1.21.848 1.825l-.456.205a87.602 87.602 0 011.566 3.711l.465-.183c.246.623.486 1.253.721 1.89l-.469.172a91.66 91.66 0 011.308 3.804l.477-.152c.205.642.405 1.29.598 1.943l-.479.142c.377 1.269.731 2.56 1.064 3.873l.484-.123c.166.656.327 1.317.482 1.984l-.487.113c.299 1.287.577 2.594.834 3.923l.49-.095c.128.66.251 1.325.368 1.996l-.493.086c.228 1.305.436 2.63.624 3.973l.495-.069c.093.663.18 1.33.263 2.003l-.497.061c.162 1.317.305 2.653.428 4.007l.498-.045c.06.665.116 1.334.167 2.007l-.498.038c.1 1.324.182 2.666.246 4.025l.499-.024c.031.667.058 1.338.08 2.013l-.499.016c.043 1.326.07 2.67.079 4.028l.5-.003a174.877 174.877 0 010 2.059l-.5-.003a172.63 172.63 0 01-.071 4.048l.5.015c-.02.674-.044 1.343-.072 2.007l-.5-.021a156.46 156.46 0 01-.224 4.056l.498.035c-.046.67-.096 1.334-.151 1.994l-.498-.041a134.556 134.556 0 01-.395 4.049l.497.056a131.8 131.8 0 01-.239 1.987l-.496-.064a121.88 121.88 0 01-.583 4.023l.493.08c-.108.666-.221 1.327-.338 1.981l-.492-.088c-.243 1.35-.507 2.676-.791 3.978l.488.106a95.01 95.01 0 01-.45 1.973l-.486-.116a98.574 98.574 0 01-1.017 3.909l.481.136a91.372 91.372 0 01-.575 1.957l-.478-.146a89.148 89.148 0 01-1.263 3.823l.471.168c-.23.648-.467 1.289-.709 1.922l-.467-.179a81.69 81.69 0 01-1.535 3.732l.457.202a78.238 78.238 0 01-.845 1.851l-.452-.213a74.979 74.979 0 01-1.822 3.606l.44.238a75.1 75.1 0 01-.986 1.767l-.433-.25a70.294 70.294 0 01-2.117 3.447l.418.274c-.373.57-.753 1.132-1.14 1.687l-.41-.286a68.2 68.2 0 01-2.406 3.243l.393.309a66.102 66.102 0 01-1.287 1.581l-.383-.321a67.286 67.286 0 01-2.687 3.015l.363.344c-.467.493-.94.978-1.42 1.455l-.353-.354a69.239 69.239 0 01-2.947 2.764l.331.375c-.508.449-1.023.89-1.544 1.324l-.32-.384a71.142 71.142 0 01-3.177 2.496l.298.402a72.75 72.75 0 01-1.651 1.188l-.286-.409c-1.1.768-2.224 1.51-3.371 2.224l.264.425c-.576.358-1.157.71-1.744 1.055l-.253-.431a83.62 83.62 0 01-3.533 1.959l.231.443c-.597.312-1.199.618-1.807.918l-.221-.448a90.282 90.282 0 01-3.664 1.708l.201.457c-.617.271-1.239.537-1.866.797l-.192-.462a100.264 100.264 0 01-3.762 1.471l.173.469c-.635.234-1.275.463-1.92.686l-.163-.472c-1.261.437-2.54.855-3.837 1.253l.147.478c-.644.198-1.292.391-1.945.58l-.139-.481c-1.286.372-2.589.725-3.907 1.061l.123.485c-.648.165-1.301.326-1.957.483l-.116-.486c-1.301.311-2.617.605-3.948.884l.103.489c-.658.138-1.318.271-1.983.401l-.096-.491c-1.311.257-2.637.499-3.976.726l.084.493c-.664.112-1.332.221-2.002.327l-.078-.494c-1.32.208-2.652.402-3.996.584l.067.495c-.669.091-1.342.178-2.017.262l-.062-.497c-1.324.165-2.66.317-4.008.458l.052.497c-.673.07-1.349.137-2.027.202l-.048-.498c-1.328.126-2.667.241-4.016.345l.039.498c-.673.052-1.349.101-2.027.148l-.035-.499a245.46 245.46 0 01-4.028.245l.027.5c-.673.035-1.348.069-2.025.1l-.023-.5a291.83 291.83 0 01-4.037.156l.016.5a170.524 170.524 0 01-1.061.03c-.331-.019-.661-.038-.99-.059l.03-.499c-1.325-.082-2.64-.179-3.946-.289l-.042.498c-.661-.056-1.32-.116-1.976-.18l.048-.497a161.476 161.476 0 01-3.933-.429l-.06.496c-.66-.08-1.316-.164-1.97-.252l.067-.495a151.19 151.19 0 01-3.914-.579l-.08.494c-.655-.106-1.308-.216-1.957-.33l.087-.493c-1.31-.23-2.606-.476-3.887-.739l-.1.489c-.652-.133-1.3-.272-1.943-.414l.108-.488c-1.3-.288-2.583-.593-3.849-.915l-.123.485-.334-.086c.001.347.013.689.036 1.025l-.499.034zm36.129-21.106c-.247 0-.493 0-.74-.002l-.24-.001-.004.5a136.32 136.32 0 01-3.913-.083l.018-.5c-.652-.023-1.301-.051-1.947-.084l-.026.499a119.996 119.996 0 01-3.904-.262l.041-.498c-.65-.055-1.298-.115-1.942-.18l-.05.498c-1.31-.132-2.605-.287-3.887-.463l.069-.496a96.972 96.972 0 01-1.922-.284l-.078.494a94.692 94.692 0 01-3.85-.688l.097-.491a87.513 87.513 0 01-1.91-.404l-.109.488c-1.284-.287-2.55-.6-3.798-.941l.132-.482c-.628-.171-1.25-.35-1.869-.535l-.143.479c-1.26-.378-2.5-.784-3.72-1.221l.17-.471a66.6 66.6 0 01-1.817-.678l-.181.466a66.325 66.325 0 01-3.605-1.528l.208-.454c-.59-.271-1.174-.55-1.752-.838l-.223.448a59.964 59.964 0 01-3.444-1.854l.251-.432c-.56-.326-1.115-.66-1.662-1.004l-.266.424a55.608 55.608 0 01-3.239-2.194l.295-.404a54.465 54.465 0 01-1.545-1.17l-.309.393a52.928 52.928 0 01-2.984-2.531l.337-.369a51.97 51.97 0 01-1.406-1.334l-.351.356a52.179 52.179 0 01-2.683-2.845l.377-.33a50.03 50.03 0 01-1.251-1.485l-.388.315a53.113 53.113 0 01-2.35-3.127l.41-.285a54.94 54.94 0 01-1.078-1.608l-.42.27a56.256 56.256 0 01-2.004-3.362l.438-.241a58.15 58.15 0 01-.905-1.712l-.446.227a61.25 61.25 0 01-1.658-3.543l.46-.198a62.832 62.832 0 01-.745-1.807l-.465.183a67.759 67.759 0 01-1.328-3.679l.475-.156c-.2-.606-.392-1.22-.578-1.841l-.48.143a76.134 76.134 0 01-1.024-3.776l.486-.118a81.563 81.563 0 01-.442-1.911l-.489.107a86.33 86.33 0 01-.748-3.84l.493-.085a90.088 90.088 0 01-.307-1.905l-.494.074a97.903 97.903 0 01-.503-3.883l.497-.054c-.07-.64-.135-1.287-.194-1.94l-.498.046c-.116-1.276-.21-2.575-.283-3.899l.5-.027a103.57 103.57 0 01-.093-1.969l-.5.019a126.783 126.783 0 01-.089-3.897l.5-.004a135.777 135.777 0 010-1.982l-.5-.004c.01-1.32.04-2.62.09-3.897l.499.02c.025-.663.056-1.32.092-1.97l-.5-.027c.074-1.324.168-2.623.284-3.898l.498.045c.06-.653.124-1.3.194-1.94l-.497-.054c.145-1.32.312-2.615.503-3.883l.494.074c.097-.642.199-1.277.307-1.905l-.493-.085a86.32 86.32 0 01.748-3.84l.489.107c.14-.644.288-1.281.442-1.91l-.486-.12a76.351 76.351 0 011.025-3.775l.479.143c.186-.621.379-1.235.578-1.84l-.475-.157c.415-1.26.857-2.486 1.328-3.68l.465.184c.241-.611.49-1.214.745-1.807l-.46-.198a61.373 61.373 0 011.658-3.543l.446.226c.294-.579.596-1.15.905-1.71l-.438-.242a56.428 56.428 0 012.004-3.362l.42.27a54.14 54.14 0 011.078-1.608l-.41-.285a53.489 53.489 0 012.35-3.127l.388.315c.41-.505.826-1 1.25-1.485l-.376-.33a52.347 52.347 0 012.683-2.846l.35.357c.462-.454.931-.899 1.407-1.334l-.337-.37a53.082 53.082 0 012.984-2.53l.31.393a51.69 51.69 0 011.544-1.17l-.295-.404a55.802 55.802 0 013.24-2.194l.265.424a57.224 57.224 0 011.662-1.004l-.251-.432a60.207 60.207 0 013.444-1.854l.223.448a62.579 62.579 0 011.752-.838l-.208-.454a66.399 66.399 0 013.605-1.528l.181.466a69.6 69.6 0 011.816-.678l-.169-.471a74.311 74.311 0 013.72-1.221l.143.479a78.89 78.89 0 011.869-.535l-.132-.482a83.806 83.806 0 013.798-.94l.11.487a89.19 89.19 0 011.91-.404l-.099-.49a94.696 94.696 0 013.851-.689l.078.494c.637-.1 1.278-.195 1.922-.284l-.069-.495c1.282-.177 2.578-.332 3.887-.464l.05.498a110.19 110.19 0 011.942-.18l-.041-.498c1.289-.108 2.59-.195 3.904-.262l.026.5c.646-.034 1.295-.062 1.947-.085l-.018-.5c1.294-.046 2.598-.074 3.913-.083l.004.5a145.289 145.289 0 012.008 0l.003-.5c1.379.011 2.746.042 4.101.095l-.02.5c.682.026 1.361.058 2.037.095l.027-.5c1.376.077 2.739.176 4.088.298l-.045.498c.682.062 1.361.13 2.037.204l.054-.497c1.371.15 2.727.325 4.066.526l-.074.495a91.72 91.72 0 012.012.324l.084-.493c1.361.234 2.703.495 4.027.785l-.107.488c.665.145 1.325.298 1.981.458l.118-.485c1.341.327 2.661.684 3.959 1.073l-.143.479c.654.195 1.302.399 1.945.61l.156-.474c1.308.43 2.593.894 3.853 1.391l-.183.465c.634.25 1.262.51 1.884.778l.198-.46c1.263.544 2.5 1.124 3.71 1.74l-.227.446c.606.309 1.205.627 1.797.954l.242-.437c1.2.664 2.372 1.366 3.514 2.108l-.272.42c.569.369 1.13.748 1.683 1.137l.287-.409a53.95 53.95 0 013.262 2.482l-.317.386c.522.43 1.036.87 1.542 1.32l.333-.373a52.757 52.757 0 012.953 2.842l-.361.346c.468.487.928.984 1.379 1.492l.374-.332a52.99 52.99 0 012.601 3.165l-.399.303a52.96 52.96 0 011.201 1.645l.409-.286a55.216 55.216 0 012.223 3.438l-.43.256c.344.578.681 1.166 1.008 1.764l.439-.24a60.365 60.365 0 011.847 3.666l-.454.21c.281.607.554 1.224.819 1.85l.46-.195a66.666 66.666 0 011.479 3.824l-.472.166c.224.636.441 1.28.649 1.934l.477-.152a74.29 74.29 0 011.137 3.936l-.483.126c.169.65.331 1.31.486 1.977l.487-.114c.304 1.308.581 2.645.83 4.014l-.491.09c.12.663.235 1.334.342 2.012l.494-.078a96.1 96.1 0 01.556 4.065l-.496.057c.077.666.148 1.34.213 2.02l.497-.048c.128 1.336.233 2.698.313 4.086l-.499.03c.04.679.073 1.364.102 2.056l.499-.02c.054 1.34.087 2.702.098 4.088l-.5.004a119.19 119.19 0 010 2.076l.5.004a126.36 126.36 0 01-.098 4.088l-.499-.021a121.69 121.69 0 01-.102 2.058l.499.029c-.08 1.388-.185 2.75-.313 4.086l-.497-.048c-.065.68-.136 1.354-.213 2.02l.496.057a96.1 96.1 0 01-.556 4.065l-.494-.078a90.568 90.568 0 01-.342 2.012l.491.09a84.33 84.33 0 01-.83 4.014l-.487-.114a79.335 79.335 0 01-.486 1.977l.484.125a75.332 75.332 0 01-1.138 3.937l-.477-.152a67.417 67.417 0 01-.649 1.934l.472.166a66.593 66.593 0 01-1.479 3.824l-.46-.195a62.32 62.32 0 01-.819 1.851l.454.209a60.318 60.318 0 01-1.847 3.666l-.439-.24a55.748 55.748 0 01-1.008 1.764l.43.256a54.995 54.995 0 01-2.223 3.438l-.409-.287c-.392.56-.792 1.108-1.201 1.646l.399.303a52.86 52.86 0 01-2.601 3.165l-.373-.332a52.949 52.949 0 01-1.38 1.492l.361.346a52.697 52.697 0 01-2.953 2.842l-.333-.374a50.65 50.65 0 01-1.542 1.32l.317.387a54.577 54.577 0 01-3.261 2.482l-.288-.409c-.553.389-1.114.768-1.683 1.137l.272.42a57.886 57.886 0 01-3.514 2.108l-.242-.437c-.592.327-1.191.645-1.797.954l.227.445a63.203 63.203 0 01-3.71 1.741l-.198-.46c-.622.268-1.25.527-1.884.778l.183.465c-1.26.497-2.545.961-3.853 1.391l-.156-.475c-.643.212-1.291.416-1.945.611l.143.479a79.992 79.992 0 01-3.959 1.074l-.118-.486c-.656.16-1.316.313-1.981.458l.107.489c-1.324.289-2.666.55-4.027.784l-.084-.493a91.72 91.72 0 01-2.012.324l.074.495a102.47 102.47 0 01-4.066.526l-.054-.497c-.675.074-1.355.142-2.037.204l.045.498c-1.349.122-2.712.221-4.088.297l-.027-.499c-.676.038-1.355.069-2.037.096l.02.499c-1.355.053-2.722.084-4.101.094l-.003-.5c-.342.003-.684.004-1.028.004z" stroke="#fff" stroke-linejoin="round" stroke-dasharray="2 4"/></svg>