<svg width="236" height="267" viewBox="0 0 236 267" fill="none" xmlns="http://www.w3.org/2000/svg"><g filter="url(#filter0_d_588_2905)"><path d="M166.32 226.113l-23.015-58.767c-3.886-9.45-5.978-17.128-24.808-17.128h-51.41v75.895H40.184V40.067h87.577c37.661 0 64.562 15.652 64.562 57.586 0 27.759-14.945 44.592-50.812 44.592v1.181c9.863 2.067 24.21 2.658 31.384 22.148l22.716 60.539H166.32zm-99.234-92.137h54.698c24.809 0 43.639-9.154 43.639-37.8 0-25.987-14.646-33.074-38.557-33.074h-59.78v70.874z" fill="#2B2BD9"/></g><defs><filter id="filter0_d_588_2905" x=".186" y=".067" width="235.426" height="266.046" filterUnits="userSpaceOnUse" color-interpolation-filters="sRGB"><feFlood flood-opacity="0" result="BackgroundImageFix"/><feColorMatrix in="SourceAlpha" values="0 0 0 0 0 0 0 0 0 0 0 0 0 0 0 0 0 0 127 0" result="hardAlpha"/><feOffset/><feGaussianBlur stdDeviation="20"/><feComposite in2="hardAlpha" operator="out"/><feColorMatrix values="0 0 0 0 0.0509804 0 0 0 0 0.356314 0 0 0 0 0.94902 0 0 0 0.5 0"/><feBlend in2="BackgroundImageFix" result="effect1_dropShadow_588_2905"/><feBlend in="SourceGraphic" in2="effect1_dropShadow_588_2905" result="shape"/></filter></defs></svg>