<svg width="48" height="48" viewBox="0 0 48 48" fill="none" xmlns="http://www.w3.org/2000/svg">
<g clip-path="url(#clip0_1069_4582)">
<path fill-rule="evenodd" clip-rule="evenodd" d="M8.09683 11.5688L6.19183 12.4829V38.2669L8.09683 39.181L15.6479 25.3749L8.09683 11.5688Z" fill="#9D5025"/>
<path fill-rule="evenodd" clip-rule="evenodd" d="M12.5385 38.1817L8.0968 39.181V11.5688L12.538 12.5423V38.1822L12.5385 38.1817Z" fill="#F58536"/>
<path fill-rule="evenodd" clip-rule="evenodd" d="M10.1983 10.5579L12.5386 9.44141L18.0777 25.3749L12.5386 41.3084L10.1983 40.1919V10.5579Z" fill="#9D5025"/>
<path fill-rule="evenodd" clip-rule="evenodd" d="M18.0777 39.8069L12.5391 41.3084V9.44141L18.0777 10.9484V39.8069Z" fill="#F58536"/>
<path fill-rule="evenodd" clip-rule="evenodd" d="M15.1469 8.18583L18.0777 6.78003L36.3765 25.375L18.0777 43.965L15.1469 42.5647V8.18583Z" fill="#9D5025"/>
<path fill-rule="evenodd" clip-rule="evenodd" d="M37.8641 36.9415L18.0777 43.965V6.77954L37.8647 13.7172L37.8641 36.9415Z" fill="#F58536"/>
<path fill-rule="evenodd" clip-rule="evenodd" d="M35.3008 21.9061L31.6064 22.136L21.3922 21.3077L25.1875 3.375L35.3067 21.9061H35.3008Z" fill="#6B3A19"/>
<path fill-rule="evenodd" clip-rule="evenodd" d="M25.1875 20.9387V3.375L21.3981 5.1922V21.3072L25.1875 20.9387Z" fill="#9D5025"/>
<path fill-rule="evenodd" clip-rule="evenodd" d="M35.3013 21.9062V8.2282L25.1875 3.375V20.9387L35.3068 21.9067L35.3013 21.9062Z" fill="#F58536"/>
<path fill-rule="evenodd" clip-rule="evenodd" d="M35.3008 28.7267L31.8012 28.5122L21.3916 29.357L25.1875 47.375L35.3067 28.7262L35.3008 28.7267Z" fill="#FBBF93"/>
<path fill-rule="evenodd" clip-rule="evenodd" d="M21.3927 29.3569V45.5627L25.1875 47.3749V29.688L21.3981 29.3569H21.3927Z" fill="#9D5025"/>
<path fill-rule="evenodd" clip-rule="evenodd" d="M25.1875 29.688V47.3749L35.3068 42.5217V28.7261L25.1875 29.688Z" fill="#F58536"/>
<path fill-rule="evenodd" clip-rule="evenodd" d="M44.1831 27.8819L42.01 27.7961L36.3765 28.2719L38.7558 40.8647L44.1831 27.8819Z" fill="#FBBF93"/>
<path fill-rule="evenodd" clip-rule="evenodd" d="M38.7558 28.3944V40.864L44.1831 38.2609V27.8818L38.7558 28.3944Z" fill="#F58536"/>
<path fill-rule="evenodd" clip-rule="evenodd" d="M44.1831 22.7613L42.01 22.8466L36.3765 22.3653L38.7558 9.88525L44.1831 22.7613Z" fill="#6B3A19"/>
<path fill-rule="evenodd" clip-rule="evenodd" d="M44.1831 22.7613V12.4884L38.7558 9.88525V22.2383L44.1831 22.7613Z" fill="#F58536"/>
<path fill-rule="evenodd" clip-rule="evenodd" d="M36.3765 40.2607L38.7558 40.8646V28.3999L36.371 28.2767V40.2656L36.3765 40.2607ZM36.3765 10.4892L38.7558 9.88525V22.2383L36.371 22.3664V10.4892H36.3765Z" fill="#9D5025"/>
</g>
<defs>
<clipPath id="clip0_1069_4582">
<rect width="38" height="44" fill="white" transform="translate(5 2)"/>
</clipPath>
</defs>
</svg>
