<svg width="331" height="320" viewBox="0 0 331 320" fill="none" xmlns="http://www.w3.org/2000/svg"><rect x="664.521" y="664.521" width="528.608" height="528.608" rx="2" transform="rotate(180 664.521 664.521)" stroke="#fff" stroke-width="4"/><rect x="664.521" y="664.521" width="396.217" height="396.217" rx="2" transform="rotate(180 664.521 664.521)" stroke="#fff" stroke-width="4"/><rect x="664.521" y="664.521" width="595.565" height="595.565" rx="2" transform="rotate(180 664.521 664.521)" stroke="#fff" stroke-width="4"/><rect x="664.521" y="664.521" width="463.174" height="463.174" rx="2" transform="rotate(180 664.521 664.521)" stroke="#fff" stroke-width="4"/><rect x="664.521" y="664.521" width="662.521" height="662.521" rx="2" transform="rotate(180 664.521 664.521)" stroke="#fff" stroke-width="4"/><rect x="697.998" y="698" width="528.608" height="528.608" rx="2" transform="rotate(180 697.998 698)" stroke="#fff" stroke-width="4"/><rect x="697.998" y="698" width="396.217" height="396.217" rx="2" transform="rotate(180 697.998 698)" stroke="#fff" stroke-width="4"/><rect x="697.998" y="698" width="595.565" height="595.565" rx="2" transform="rotate(180 697.998 698)" stroke="#fff" stroke-width="4"/><rect x="697.998" y="698" width="463.174" height="463.174" rx="2" transform="rotate(180 697.998 698)" stroke="#fff" stroke-width="4"/><rect x="697.998" y="698" width="662.521" height="662.521" rx="2" transform="rotate(180 697.998 698)" stroke="#fff" stroke-width="4"/></svg>