<svg width="587" height="632" viewBox="0 0 587 632" fill="none" xmlns="http://www.w3.org/2000/svg"><mask id="path-1-inside-1_949_3747" fill="#fff"><rect width="329.584" height="329.584" rx="4" transform="matrix(-.00048 1 -.94717 .32074 313.385 .406)"/></mask><rect width="329.584" height="329.584" rx="4" transform="matrix(-.00048 1 -.94717 .32074 313.385 .406)" stroke="#fff" stroke-width="10" stroke-linejoin="round" mask="url(#path-1-inside-1_949_3747)"/><mask id="path-2-inside-2_949_3747" fill="#fff"><rect width="329.584" height="329.584" rx="4" transform="matrix(-.00048 1 -.94717 .32074 347.51 24.893)"/></mask><rect width="329.584" height="329.584" rx="4" transform="matrix(-.00048 1 -.94717 .32074 347.51 24.893)" stroke="#fff" stroke-width="10" stroke-linejoin="round" mask="url(#path-2-inside-2_949_3747)"/><mask id="path-3-inside-3_949_3747" fill="#fff"><rect width="329.584" height="329.584" rx="4" transform="matrix(-.00048 1 -.94717 .32074 381.635 49.378)"/></mask><rect width="329.584" height="329.584" rx="4" transform="matrix(-.00048 1 -.94717 .32074 381.635 49.378)" stroke="#fff" stroke-width="10" stroke-linejoin="round" mask="url(#path-3-inside-3_949_3747)"/><mask id="path-4-inside-4_949_3747" fill="#fff"><rect width="329.584" height="329.584" rx="4" transform="matrix(-.00048 1 -.94717 .32074 415.758 73.862)"/></mask><rect width="329.584" height="329.584" rx="4" transform="matrix(-.00048 1 -.94717 .32074 415.758 73.862)" stroke="#fff" stroke-width="10" stroke-linejoin="round" mask="url(#path-4-inside-4_949_3747)"/><mask id="path-5-inside-5_949_3747" fill="#fff"><rect width="329.584" height="329.584" rx="4" transform="matrix(-.00048 1 -.94717 .32074 449.881 98.348)"/></mask><rect width="329.584" height="329.584" rx="4" transform="matrix(-.00048 1 -.94717 .32074 449.881 98.348)" stroke="#fff" stroke-width="10" stroke-linejoin="round" mask="url(#path-5-inside-5_949_3747)"/><mask id="path-6-inside-6_949_3747" fill="#fff"><rect width="329.584" height="329.584" rx="4" transform="matrix(-.00048 1 -.94717 .32074 484.008 122.83)"/></mask><rect width="329.584" height="329.584" rx="4" transform="matrix(-.00048 1 -.94717 .32074 484.008 122.83)" stroke="#fff" stroke-width="10" stroke-linejoin="round" mask="url(#path-6-inside-6_949_3747)"/><mask id="path-7-inside-7_949_3747" fill="#fff"><rect width="329.584" height="329.584" rx="4" transform="matrix(-.00048 1 -.94717 .32074 518.131 147.317)"/></mask><rect width="329.584" height="329.584" rx="4" transform="matrix(-.00048 1 -.94717 .32074 518.131 147.317)" stroke="#fff" stroke-width="10" stroke-linejoin="round" mask="url(#path-7-inside-7_949_3747)"/><mask id="path-8-inside-8_949_3747" fill="#fff"><rect width="329.584" height="329.584" rx="4" transform="matrix(-.00048 1 -.94717 .32074 552.256 171.8)"/></mask><rect width="329.584" height="329.584" rx="4" transform="matrix(-.00048 1 -.94717 .32074 552.256 171.8)" stroke="#fff" stroke-width="10" stroke-linejoin="round" mask="url(#path-8-inside-8_949_3747)"/><mask id="path-9-inside-9_949_3747" fill="#fff"><rect width="329.584" height="329.584" rx="4" transform="matrix(-.00048 1 -.94717 .32074 586.381 196.287)"/></mask><rect width="329.584" height="329.584" rx="4" transform="matrix(-.00048 1 -.94717 .32074 586.381 196.287)" stroke="#fff" stroke-width="10" stroke-linejoin="round" mask="url(#path-9-inside-9_949_3747)"/></svg>