<svg width="48" height="48" viewBox="0 0 48 48" fill="none" xmlns="http://www.w3.org/2000/svg"><path d="M33.474 42.571v-1.828c0-5.05-4.124-9.143-9.21-9.143H13.21C8.123 31.6 4 35.693 4 40.743v1.828m40 0v-1.828c0-3.22-1.677-6.05-4.21-7.68M33.473 7.01c2.969 1.518 5 4.59 5 8.134a9.1 9.1 0 01-3.421 7.111m-7.106-7.111c0 5.05-4.123 9.143-9.21 9.143-5.087 0-9.21-4.094-9.21-9.143 0-5.05 4.123-9.143 9.21-9.143 5.087 0 9.21 4.093 9.21 9.143z" stroke="#fff" stroke-width="3" stroke-linecap="square" stroke-linejoin="round"/></svg>