<svg width="394" height="373" viewBox="0 0 394 373" fill="none" xmlns="http://www.w3.org/2000/svg"><rect x="-1.895" y="2.641" width="325.584" height="325.584" rx="2" transform="matrix(-.00048 1 -.94717 .32074 313.99 4.096)" stroke="#fff" stroke-width="4" stroke-linejoin="round"/><rect x="-1.895" y="2.641" width="325.584" height="325.584" rx="2" transform="matrix(-.00048 1 -.94717 .32074 348.115 28.582)" stroke="#fff" stroke-width="4" stroke-linejoin="round"/><rect x="-1.895" y="2.641" width="325.584" height="325.584" rx="2" transform="matrix(-.00048 1 -.94717 .32074 382.24 53.068)" stroke="#fff" stroke-width="4" stroke-linejoin="round"/><rect x="-1.895" y="2.641" width="325.584" height="325.584" rx="2" transform="matrix(-.00048 1 -.94717 .32074 416.364 77.552)" stroke="#fff" stroke-width="4" stroke-linejoin="round"/><rect x="-1.895" y="2.641" width="325.584" height="325.584" rx="2" transform="matrix(-.00048 1 -.94717 .32074 450.487 102.037)" stroke="#fff" stroke-width="4" stroke-linejoin="round"/><rect x="-1.895" y="2.641" width="325.584" height="325.584" rx="2" transform="matrix(-.00048 1 -.94717 .32074 484.614 126.52)" stroke="#fff" stroke-width="4" stroke-linejoin="round"/><rect x="-1.895" y="2.641" width="325.584" height="325.584" rx="2" transform="matrix(-.00048 1 -.94717 .32074 518.737 151.007)" stroke="#fff" stroke-width="4" stroke-linejoin="round"/><rect x="-1.895" y="2.641" width="325.584" height="325.584" rx="2" transform="matrix(-.00048 1 -.94717 .32074 552.862 175.489)" stroke="#fff" stroke-width="4" stroke-linejoin="round"/><rect x="-1.895" y="2.641" width="325.584" height="325.584" rx="2" transform="matrix(-.00048 1 -.94717 .32074 586.987 199.977)" stroke="#fff" stroke-width="4" stroke-linejoin="round"/></svg>