<svg width="700" height="700" viewBox="0 0 700 700" fill="none" xmlns="http://www.w3.org/2000/svg"><mask id="path-1-inside-1_927_3640" fill="#fff"><rect x="666.521" y="666.521" width="333.261" height="333.261" rx="4" transform="rotate(180 666.521 666.521)"/></mask><rect x="666.521" y="666.521" width="333.261" height="333.261" rx="4" transform="rotate(180 666.521 666.521)" stroke="#fff" stroke-width="10" mask="url(#path-1-inside-1_927_3640)"/><mask id="path-2-inside-2_927_3640" fill="#fff"><rect x="666.521" y="666.521" width="532.608" height="532.608" rx="4" transform="rotate(180 666.521 666.521)"/></mask><rect x="666.521" y="666.521" width="532.608" height="532.608" rx="4" transform="rotate(180 666.521 666.521)" stroke="#fff" stroke-width="10" mask="url(#path-2-inside-2_927_3640)"/><mask id="path-3-inside-3_927_3640" fill="#fff"><rect x="666.521" y="666.521" width="400.217" height="400.217" rx="4" transform="rotate(180 666.521 666.521)"/></mask><rect x="666.521" y="666.521" width="400.217" height="400.217" rx="4" transform="rotate(180 666.521 666.521)" stroke="#fff" stroke-width="10" mask="url(#path-3-inside-3_927_3640)"/><mask id="path-4-inside-4_927_3640" fill="#fff"><rect x="666.521" y="666.521" width="599.565" height="599.565" rx="4" transform="rotate(180 666.521 666.521)"/></mask><rect x="666.521" y="666.521" width="599.565" height="599.565" rx="4" transform="rotate(180 666.521 666.521)" stroke="#fff" stroke-width="10" mask="url(#path-4-inside-4_927_3640)"/><mask id="path-5-inside-5_927_3640" fill="#fff"><rect x="666.521" y="666.521" width="467.174" height="467.174" rx="4" transform="rotate(180 666.521 666.521)"/></mask><rect x="666.521" y="666.521" width="467.174" height="467.174" rx="4" transform="rotate(180 666.521 666.521)" stroke="#fff" stroke-width="10" mask="url(#path-5-inside-5_927_3640)"/><mask id="path-6-inside-6_927_3640" fill="#fff"><rect x="666.521" y="666.521" width="666.521" height="666.521" rx="4" transform="rotate(180 666.521 666.521)"/></mask><rect x="666.521" y="666.521" width="666.521" height="666.521" rx="4" transform="rotate(180 666.521 666.521)" stroke="#fff" stroke-width="10" mask="url(#path-6-inside-6_927_3640)"/><mask id="path-7-inside-7_927_3640" fill="#fff"><rect x="699.999" y="700" width="333.261" height="333.261" rx="4" transform="rotate(180 699.999 700)"/></mask><rect x="699.999" y="700" width="333.261" height="333.261" rx="4" transform="rotate(180 699.999 700)" stroke="#fff" stroke-width="10" mask="url(#path-7-inside-7_927_3640)"/><mask id="path-8-inside-8_927_3640" fill="#fff"><rect x="699.999" y="700" width="532.608" height="532.608" rx="4" transform="rotate(180 699.999 700)"/></mask><rect x="699.999" y="700" width="532.608" height="532.608" rx="4" transform="rotate(180 699.999 700)" stroke="#fff" stroke-width="10" mask="url(#path-8-inside-8_927_3640)"/><mask id="path-9-inside-9_927_3640" fill="#fff"><rect x="699.999" y="700" width="400.217" height="400.217" rx="4" transform="rotate(180 699.999 700)"/></mask><rect x="699.999" y="700" width="400.217" height="400.217" rx="4" transform="rotate(180 699.999 700)" stroke="#fff" stroke-width="10" mask="url(#path-9-inside-9_927_3640)"/><mask id="path-10-inside-10_927_3640" fill="#fff"><rect x="699.999" y="700" width="599.565" height="599.565" rx="4" transform="rotate(180 699.999 700)"/></mask><rect x="699.999" y="700" width="599.565" height="599.565" rx="4" transform="rotate(180 699.999 700)" stroke="#fff" stroke-width="10" mask="url(#path-10-inside-10_927_3640)"/><mask id="path-11-inside-11_927_3640" fill="#fff"><rect x="699.999" y="700" width="467.174" height="467.174" rx="4" transform="rotate(180 699.999 700)"/></mask><rect x="699.999" y="700" width="467.174" height="467.174" rx="4" transform="rotate(180 699.999 700)" stroke="#fff" stroke-width="10" mask="url(#path-11-inside-11_927_3640)"/><mask id="path-12-inside-12_927_3640" fill="#fff"><rect x="699.999" y="700" width="666.521" height="666.521" rx="4" transform="rotate(180 699.999 700)"/></mask><rect x="699.999" y="700" width="666.521" height="666.521" rx="4" transform="rotate(180 699.999 700)" stroke="#fff" stroke-width="10" mask="url(#path-12-inside-12_927_3640)"/></svg>