<svg width="375" height="812" viewBox="0 0 375 812" fill="none" xmlns="http://www.w3.org/2000/svg">
<g clip-path="url(#clip0_2188_1762)">
<rect width="375" height="812" fill="white"/>
<rect x="191.516" y="8.42856" width="11.3333" height="11.3333" rx="1" transform="rotate(-135 191.516 8.42856)" stroke="#0C5AF2" stroke-width="2"/>
<rect x="191.422" y="27.2912" width="38" height="38" rx="1" transform="rotate(-135 191.422 27.2912)" stroke="#0C5AF2" stroke-width="2"/>
<rect x="191.422" y="46.1479" width="64.6667" height="64.6667" rx="1" transform="rotate(-135 191.422 46.1479)" stroke="#0C5AF2" stroke-width="2"/>
<rect x="191.422" y="65.0041" width="91.3333" height="91.3333" rx="1" transform="rotate(-135 191.422 65.0041)" stroke="#0C5AF2" stroke-width="2"/>
<rect x="191.422" y="83.8602" width="118" height="118" rx="1" transform="rotate(-135 191.422 83.8602)" stroke="#0C5AF2" stroke-width="2"/>
<rect x="191.422" y="102.716" width="144.667" height="144.667" rx="1" transform="rotate(-135 191.422 102.716)" stroke="#0C5AF2" stroke-width="2"/>
<rect x="191.422" y="121.572" width="171.333" height="171.333" rx="1" transform="rotate(-135 191.422 121.572)" stroke="#0C5AF2" stroke-width="2"/>
<rect x="191.422" y="140.429" width="198" height="198" rx="1" transform="rotate(-135 191.422 140.429)" stroke="#0C5AF2" stroke-width="2"/>
<rect x="188.516" y="820.428" width="11.3333" height="11.3333" rx="1" transform="rotate(-135 188.516 820.428)" stroke="#0C5AF2" stroke-width="2"/>
<rect x="188.422" y="839.291" width="38" height="38" rx="1" transform="rotate(-135 188.422 839.291)" stroke="#0C5AF2" stroke-width="2"/>
<rect x="188.422" y="858.148" width="64.6667" height="64.6667" rx="1" transform="rotate(-135 188.422 858.148)" stroke="#0C5AF2" stroke-width="2"/>
<rect x="188.422" y="877.004" width="91.3333" height="91.3333" rx="1" transform="rotate(-135 188.422 877.004)" stroke="#0C5AF2" stroke-width="2"/>
<rect x="188.422" y="895.86" width="118" height="118" rx="1" transform="rotate(-135 188.422 895.86)" stroke="#0C5AF2" stroke-width="2"/>
<rect x="188.422" y="914.716" width="144.667" height="144.667" rx="1" transform="rotate(-135 188.422 914.716)" stroke="#0C5AF2" stroke-width="2"/>
<rect x="188.422" y="933.572" width="171.333" height="171.333" rx="1" transform="rotate(-135 188.422 933.572)" stroke="#0C5AF2" stroke-width="2"/>
<rect x="188.422" y="952.428" width="198" height="198" rx="1" transform="rotate(-135 188.422 952.428)" stroke="#0C5AF2" stroke-width="2"/>
</g>
<defs>
<clipPath id="clip0_2188_1762">
<rect width="375" height="812" fill="white"/>
</clipPath>
</defs>
</svg>
