<svg width="1440" height="1024" viewBox="0 0 1440 1024" fill="none" xmlns="http://www.w3.org/2000/svg">
<g clip-path="url(#clip0_2181_1715)">
<rect width="1440" height="1024" fill="white"/>
<rect x="858.621" y="-119.736" width="195" height="195" rx="2.5" transform="rotate(135 858.621 -119.736)" stroke="#0C5AF2" stroke-width="5"/>
<rect x="915.191" y="-119.736" width="275" height="275" rx="2.5" transform="rotate(135 915.191 -119.736)" stroke="#0C5AF2" stroke-width="5"/>
<rect x="971.761" y="-119.736" width="355" height="355" rx="2.5" transform="rotate(135 971.761 -119.736)" stroke="#0C5AF2" stroke-width="5"/>
<rect x="1028.33" y="-119.736" width="435" height="435" rx="2.5" transform="rotate(135 1028.33 -119.736)" stroke="#0C5AF2" stroke-width="5"/>
<rect x="1084.89" y="-119.736" width="515" height="515" rx="2.5" transform="rotate(135 1084.89 -119.736)" stroke="#0C5AF2" stroke-width="5"/>
<rect x="1141.46" y="-119.736" width="595" height="595" rx="2.5" transform="rotate(135 1141.46 -119.736)" stroke="#0C5AF2" stroke-width="5"/>
<rect x="858.148" y="1134.26" width="195" height="195" rx="2.5" transform="rotate(135 858.148 1134.26)" stroke="#0C5AF2" stroke-width="5"/>
<rect x="914.718" y="1134.26" width="275" height="275" rx="2.5" transform="rotate(135 914.718 1134.26)" stroke="#0C5AF2" stroke-width="5"/>
<rect x="971.289" y="1134.26" width="355" height="355" rx="2.5" transform="rotate(135 971.289 1134.26)" stroke="#0C5AF2" stroke-width="5"/>
<rect x="1027.86" y="1134.26" width="435" height="435" rx="2.5" transform="rotate(135 1027.86 1134.26)" stroke="#0C5AF2" stroke-width="5"/>
<rect x="1084.42" y="1134.26" width="515" height="515" rx="2.5" transform="rotate(135 1084.42 1134.26)" stroke="#0C5AF2" stroke-width="5"/>
<rect x="1140.99" y="1134.26" width="595" height="595" rx="2.5" transform="rotate(135 1140.99 1134.26)" stroke="#0C5AF2" stroke-width="5"/>
</g>
<defs>
<clipPath id="clip0_2181_1715">
<rect width="1440" height="1024" fill="white"/>
</clipPath>
</defs>
</svg>
