<svg width="32" height="32" viewBox="0 0 32 32" fill="none" xmlns="http://www.w3.org/2000/svg">
<path fill-rule="evenodd" clip-rule="evenodd" d="M27.1198 8.07996L8.07997 8.07996L8.07997 27.1198H4L4 8.07996C4 5.82666 5.82667 4 8.07997 4L27.1198 4V8.07996ZM27.1198 14.3699L14.3699 14.3699V27.1198H10.2899L10.2899 14.3699C10.2899 12.1166 12.1166 10.2899 14.3699 10.2899L27.1198 10.2899V14.3699ZM20.6599 20.6599H27.1198V16.5799H20.6599C18.4066 16.5799 16.5799 18.4065 16.5799 20.6599L16.5799 27.1198H20.6599L20.6599 20.6599ZM21.9896 24.9948L24.9948 28L28 24.9948L24.9948 21.9896L21.9896 24.9948Z" fill="#0C5AF2"/>
</svg>
