<svg width="32" height="32" viewBox="0 0 32 32" fill="none" xmlns="http://www.w3.org/2000/svg">
<path fill-rule="evenodd" clip-rule="evenodd" d="M30.8264 5.43995L5.43996 5.43995L5.43996 30.8264H1.15116e-06L0 5.43995C-1.36236e-07 2.43555 2.43555 1.19628e-06 5.43996 1.06969e-06L30.8264 0V5.43995ZM30.8264 13.8265L13.8266 13.8265V30.8264H8.3866L8.3866 13.8265C8.3866 10.8221 10.8221 8.38659 13.8266 8.38659L30.8264 8.38659V13.8265ZM22.2132 22.2131H30.8264V16.7732H22.2132C19.2087 16.7732 16.7732 19.2087 16.7732 22.2131L16.7732 30.8264H22.2131L22.2132 22.2131ZM23.9862 27.9931L27.9931 32L32 27.9931L27.9931 23.9862L23.9862 27.9931Z" fill="#0C5AF2"/>
</svg>
