<svg width="668" height="38" viewBox="0 0 668 38" fill="none" xmlns="http://www.w3.org/2000/svg">
<path d="M4.336 8.22C4.336 5.832 5.248 4.356 7.432 4.356C9.604 4.356 10.504 5.844 10.504 8.22C10.504 10.476 9.604 12.084 7.432 12.084C5.248 12.084 4.336 10.488 4.336 8.22ZM6.1 10.824L8.044 5.256C7.864 5.22 7.66 5.196 7.432 5.196C5.728 5.196 5.296 6.372 5.296 8.22C5.296 9.348 5.488 10.308 6.1 10.824ZM7.432 11.244C9.112 11.244 9.544 9.936 9.544 8.22C9.544 6.948 9.34 5.988 8.656 5.52L6.688 11.136C6.904 11.208 7.144 11.244 7.432 11.244ZM13.0038 8.496C11.8278 8.496 11.2397 7.512 11.2397 6.432C11.2397 5.352 11.8278 4.38 13.0038 4.38C14.1918 4.38 14.7558 5.352 14.7558 6.432C14.7558 7.512 14.1918 8.496 13.0038 8.496ZM13.2318 12H12.2838L17.5638 4.44H18.5118L13.2318 12ZM13.0038 7.764C13.7238 7.764 13.9398 7.056 13.9398 6.432C13.9398 5.808 13.7238 5.112 13.0038 5.112C12.2958 5.112 12.0678 5.82 12.0678 6.432C12.0678 7.056 12.2958 7.764 13.0038 7.764ZM17.7918 12.06C16.6038 12.06 16.0398 11.076 16.0398 9.996C16.0398 8.916 16.6038 7.944 17.7918 7.944C18.9678 7.944 19.5438 8.916 19.5438 9.996C19.5438 11.076 18.9678 12.06 17.7918 12.06ZM17.7918 11.328C18.4998 11.328 18.7278 10.62 18.7278 9.996C18.7278 9.384 18.4998 8.676 17.7918 8.676C17.0718 8.676 16.8558 9.372 16.8558 9.996C16.8558 10.62 17.0718 11.328 17.7918 11.328Z" fill="black"/>
<path d="M637.719 6.276L637.263 5.7L638.715 4.44H639.771V12H638.715V5.376L637.719 6.276ZM641.543 8.22C641.543 5.832 642.455 4.356 644.639 4.356C646.811 4.356 647.711 5.844 647.711 8.22C647.711 10.476 646.811 12.084 644.639 12.084C642.455 12.084 641.543 10.488 641.543 8.22ZM643.307 10.824L645.251 5.256C645.071 5.22 644.867 5.196 644.639 5.196C642.935 5.196 642.503 6.372 642.503 8.22C642.503 9.348 642.695 10.308 643.307 10.824ZM644.639 11.244C646.319 11.244 646.751 9.936 646.751 8.22C646.751 6.948 646.547 5.988 645.863 5.52L643.895 11.136C644.111 11.208 644.351 11.244 644.639 11.244ZM648.387 8.22C648.387 5.832 649.299 4.356 651.483 4.356C653.655 4.356 654.555 5.844 654.555 8.22C654.555 10.476 653.655 12.084 651.483 12.084C649.299 12.084 648.387 10.488 648.387 8.22ZM650.151 10.824L652.095 5.256C651.915 5.22 651.711 5.196 651.483 5.196C649.779 5.196 649.347 6.372 649.347 8.22C649.347 9.348 649.539 10.308 650.151 10.824ZM651.483 11.244C653.163 11.244 653.595 9.936 653.595 8.22C653.595 6.948 653.391 5.988 652.707 5.52L650.739 11.136C650.955 11.208 651.195 11.244 651.483 11.244ZM657.055 8.496C655.879 8.496 655.291 7.512 655.291 6.432C655.291 5.352 655.879 4.38 657.055 4.38C658.243 4.38 658.807 5.352 658.807 6.432C658.807 7.512 658.243 8.496 657.055 8.496ZM657.283 12H656.335L661.615 4.44H662.563L657.283 12ZM657.055 7.764C657.775 7.764 657.991 7.056 657.991 6.432C657.991 5.808 657.775 5.112 657.055 5.112C656.347 5.112 656.119 5.82 656.119 6.432C656.119 7.056 656.347 7.764 657.055 7.764ZM661.843 12.06C660.655 12.06 660.091 11.076 660.091 9.996C660.091 8.916 660.655 7.944 661.843 7.944C663.019 7.944 663.595 8.916 663.595 9.996C663.595 11.076 663.019 12.06 661.843 12.06ZM661.843 11.328C662.551 11.328 662.779 10.62 662.779 9.996C662.779 9.384 662.551 8.676 661.843 8.676C661.123 8.676 660.907 9.372 660.907 9.996C660.907 10.62 661.123 11.328 661.843 11.328Z" fill="black"/>
<rect x="0.5" y="14.5" width="667" height="23" rx="11.5" stroke="black"/>
<rect x="4" y="18" width="577" height="16" rx="8" fill="#0C5AF2"/>
</svg>
