<svg width="36" height="36" viewBox="0 0 36 36" fill="none" xmlns="http://www.w3.org/2000/svg">
<path d="M25.1111 21.465C25.8069 21.6333 26.4645 21.9468 27.0389 22.3901L29.8664 24.5721C31.5551 25.8753 34 24.6676 34 22.5302V7.15242C34 4.30682 31.7006 2 28.8642 2H16.0247C13.1883 2 10.8889 4.30682 10.8889 7.15242V10.8889M25.1111 21.465V16.0413C25.1111 13.1957 22.8117 10.8889 19.9753 10.8889H10.8889M25.1111 21.465V25.058C25.1111 27.9036 22.8117 30.2105 19.9753 30.2105H12.0925C10.9598 30.2105 9.85891 30.5861 8.96112 31.2789L6.13358 33.461C4.44488 34.7642 2 33.5565 2 31.419V16.0413C2 13.1957 4.29938 10.8889 7.1358 10.8889H10.8889" stroke="white" stroke-width="3" stroke-linecap="round" stroke-linejoin="round"/>
</svg>
