<svg width="36" height="36" viewBox="0 0 36 36" fill="none" xmlns="http://www.w3.org/2000/svg">
<path d="M11.0975 10.7566V5.86533C11.0975 5.63309 11.0066 5.41037 10.8448 5.24615L7.89899 2.25647C7.73718 2.09226 7.51772 2 7.28889 2H3.33223C2.85571 2 2.46942 2.39204 2.46942 2.87566V6.89122C2.46942 7.12346 2.56032 7.34619 2.72213 7.51041L5.66795 10.5001C5.82976 10.6643 6.04921 10.7566 6.27805 10.7566H11.0975ZM11.0975 10.7566L15.8194 15.5487M18 22.1146L7.17721 33.0985C5.99285 34.3005 4.07263 34.3005 2.88827 33.0985C1.70391 31.8965 1.70391 29.9477 2.88827 28.7457L15.4452 16.0019C15.5847 15.8602 15.7091 15.7086 15.8194 15.5487M18 22.1146L19.7341 20.3547C20.7497 19.324 22.2839 19.1096 23.7051 19.3198C23.751 19.3266 23.7969 19.333 23.843 19.339M18 22.1146L28.8228 33.0985C30.0071 34.3005 31.9274 34.3005 33.1117 33.0985C34.2961 31.8965 34.2961 29.9477 33.1117 28.7457L23.843 19.339M23.843 19.339C24.2063 19.3866 24.5767 19.4112 24.9527 19.4112C29.6901 19.4112 33.5306 15.5136 33.5306 10.7056C33.5306 9.87468 33.4159 9.07095 33.2017 8.30984C33.036 7.72127 32.3168 7.58465 31.8903 8.01747L29.599 10.3429C28.4147 11.5449 26.4945 11.5449 25.3101 10.3429C24.1257 9.14087 24.1257 7.19205 25.3101 5.99006L27.6014 3.66467C28.0278 3.23185 27.8932 2.50192 27.3133 2.33381C26.5633 2.11641 25.7714 2 24.9527 2C20.2153 2 16.3748 5.89763 16.3748 10.7056C16.3748 11.1356 16.4055 11.5584 16.4649 11.9717C16.6435 13.2158 16.5109 14.5453 15.8194 15.5487" stroke="white" stroke-width="3" stroke-linecap="round"/>
</svg>
