<svg width="36" height="36" viewBox="0 0 36 36" fill="none" xmlns="http://www.w3.org/2000/svg">
<path d="M6.84886 19.3709C0.883874 21.0728 4.40922 29.1816 2 34H9.47413C12.5399 34 15.1746 32.1541 16.3274 29.5132M6.84886 19.3709C7.57432 19.164 8.44017 19.0517 9.47413 19.0517C13.602 19.0517 16.9483 22.398 16.9483 26.5259C16.9483 27.5879 16.7267 28.5983 16.3274 29.5132M6.84886 19.3709L14.1455 13.2904M16.3274 29.5132L22.7096 21.8545M14.1455 13.2904L26.4062 3.07311C28.2458 1.54016 30.9507 1.66286 32.6439 3.35606C34.3371 5.04927 34.4598 7.75421 32.9269 9.59376L22.7096 21.8545M14.1455 13.2904C18.0673 14.8294 21.1706 17.9327 22.7096 21.8545" stroke="black" stroke-width="3" stroke-linecap="round" stroke-linejoin="round"/>
</svg>
