<svg width="48" height="48" viewBox="0 0 48 48" fill="none" xmlns="http://www.w3.org/2000/svg"><g clip-path="url(#clip0_1069_4582)" fill-rule="evenodd" clip-rule="evenodd"><path d="M8.097 11.569l-1.905.914v25.784l1.905.914 7.55-13.806-7.55-13.806z" fill="#9D5025"/><path d="M12.539 38.182l-4.442.999V11.569l4.441.973v25.64z" fill="#F58536"/><path d="M10.198 10.558l2.34-1.117 5.54 15.934-5.54 15.933-2.34-1.116V10.558z" fill="#9D5025"/><path d="M18.078 39.807l-5.539 1.501V9.441l5.539 1.507v28.859z" fill="#F58536"/><path d="M15.147 8.186l2.93-1.406 18.3 18.595-18.3 18.59-2.93-1.4V8.185z" fill="#9D5025"/><path d="M37.864 36.941l-19.786 7.024V6.78l19.787 6.937v23.224z" fill="#F58536"/><path d="M35.3 21.906l-3.694.23-10.214-.828 3.796-17.933 10.119 18.531H35.3z" fill="#6B3A19"/><path d="M25.188 20.939V3.375l-3.79 1.817v16.115l3.79-.368z" fill="#9D5025"/><path d="M35.301 21.906V8.228L25.187 3.375v17.564l10.12.968H35.3z" fill="#F58536"/><path d="M35.3 28.727l-3.499-.215-10.41.845 3.797 18.018 10.119-18.649H35.3z" fill="#FBBF93"/><path d="M21.393 29.357v16.206l3.794 1.812V29.688l-3.789-.331h-.005z" fill="#9D5025"/><path d="M25.188 29.688v17.687l10.119-4.853V28.726l-10.12.962z" fill="#F58536"/><path d="M44.183 27.882l-2.173-.086-5.633.476 2.379 12.593 5.427-12.983z" fill="#FBBF93"/><path d="M38.756 28.394v12.47l5.427-2.603V27.88l-5.427.513z" fill="#F58536"/><path d="M44.183 22.761l-2.173.086-5.633-.482 2.379-12.48 5.427 12.876z" fill="#6B3A19"/><path d="M44.183 22.761V12.488l-5.427-2.603v12.353l5.427.523z" fill="#F58536"/><path d="M36.377 40.26l2.379.605V28.4l-2.385-.123v11.989l.005-.005zm0-29.77l2.379-.605v12.353l-2.385.128V10.49h.005z" fill="#9D5025"/></g><defs><clipPath id="clip0_1069_4582"><path fill="#fff" transform="translate(5 2)" d="M0 0h38v44H0z"/></clipPath></defs></svg>