<svg xmlns="http://www.w3.org/2000/svg" width="70" height="48" viewBox="0 0 70 48" fill="none"><g clip-path="url(#clip0_5169_283)"><path d="M31.4719 35.0377C31.4719 37.7723 31.413 47.198 31.413 47.198L33.2976 47.3143H35.0644C35.0644 47.3143 35.0644 37.7141 35.0644 35.0377C46.8432 29.6267 45.6653 16.361 43.4274 11.1827C41.1894 6.00442 33.2976 0.30249 33.2976 0.30249C33.2976 0.30249 25.2881 6.00442 23.0501 11.1827C20.871 16.3028 19.6931 29.6267 31.4719 35.0377Z" fill="white"></path><path d="M31.4715 35.0378C31.4715 37.7724 31.4127 47.7799 31.4127 47.7799H33.2973L33.3562 0.244385C33.3562 0.244385 25.3466 5.94632 23.1086 11.1246C20.8707 16.3029 19.6928 29.6268 31.4715 35.0378Z" fill="white"></path><path d="M33.3551 0.244336C33.3551 0.244336 41.2469 5.94627 43.4848 11.1246C45.7228 16.3028 46.9007 29.5685 35.1219 34.9796C35.1219 37.7142 35.1219 47.3725 35.1219 47.3725L33.3551 47.7798L31.4705 47.4307C31.4705 47.4307 31.5294 37.7723 31.5294 35.0377C19.7506 29.6267 20.9285 16.361 23.1665 11.1827C25.3456 5.94627 33.3551 0.244336 33.3551 0.244336ZM33.3551 -0.453857L33.0017 -0.22112C32.6484 0.0116115 24.8155 5.65535 22.5187 10.8918C21.3997 13.4519 20.4574 18.1647 21.3997 23.1102C22.1653 27.0085 24.4033 32.3031 30.8227 35.3868C30.8227 38.5287 30.7638 47.3725 30.7638 47.3725V47.838L31.2349 47.9543L33.1195 48.3035H33.1784H33.2373H33.2962H33.3551L35.1219 47.8962L35.5931 47.7798V47.3143C35.5931 47.198 35.5931 38.4124 35.5931 35.3287C42.0125 32.245 44.2505 26.9503 45.0161 23.0521C45.9584 18.1647 45.0161 13.3937 43.8971 10.8336C41.6002 5.53899 33.8851 -0.046575 33.5907 -0.279307L33.3551 -0.453857Z" fill="#2B2BD9"></path><path d="M31.3554 48.2455L31.2965 48.1873C31.061 48.0128 26.2906 43.94 25.1716 42.8927C23.1103 43.649 20.9901 44.0563 18.9877 44.0563C10.1537 44.0563 3.73424 36.7835 1.73185 32.187C-0.565012 27.0087 0.67176 17.6994 0.730654 17.2922V17.0594L0.966226 17.0013C1.02512 17.0013 5.08879 16.2449 9.38804 16.2449C12.2149 16.2449 14.4529 16.5358 16.1608 17.1758C21.638 19.2122 32.18 27.6487 28.1163 39.809C28.4107 40.0999 28.8819 40.5072 29.4119 40.9726C30.472 41.9617 31.9444 43.2418 33.2989 44.5218C34.6535 43.5327 36.0081 42.5436 37.0093 41.729C37.6571 41.2054 38.246 40.7981 38.6583 40.5072C36.2436 27.9397 47.7868 20.8413 53.4406 19.5613C54.3829 19.3286 55.5019 19.2122 56.6798 19.2122C62.0391 19.2122 68.4585 21.2486 68.5174 21.3068L68.6941 21.365V21.5977C68.6941 22.005 68.6941 31.3724 65.7494 36.2598C63.3937 40.1581 57.0331 45.9764 49.0825 45.9764C46.3734 45.9764 43.6642 45.2782 41.0729 43.8818C40.6607 44.1727 40.0128 44.6382 39.2472 45.1618C37.9515 46.0345 36.3614 47.1982 35.0068 48.1291L34.948 48.1873H31.3554V48.2455Z" fill="white"></path><path d="M9.32849 16.5357C11.6842 16.5357 14.0989 16.7684 15.9835 17.4666C21.3428 19.4448 31.8848 27.765 27.7034 39.9252C28.5868 40.7398 31.0014 42.8926 33.1805 44.929C35.5951 43.1835 37.892 41.3216 38.8932 40.6234C36.3607 27.9977 47.9039 21.1321 53.44 19.8521C54.4412 19.6194 55.5012 19.5612 56.6202 19.5612C61.9796 19.5612 68.399 21.5976 68.399 21.5976C68.399 21.5976 68.399 31.256 65.5132 36.0852C63.3341 39.7507 56.9736 45.6853 49.1407 45.6853C46.6083 45.6853 43.8992 45.0453 41.0723 43.5326C40.1889 44.1726 37.0675 46.2672 34.8295 47.8963H31.4726C31.4726 47.8963 26.0543 43.2998 25.2298 42.4853C23.0508 43.358 20.9306 43.7071 18.9871 43.7071C10.153 43.7071 3.85136 36.2597 1.96676 32.0124C-0.271202 26.8341 0.965569 17.2339 0.965569 17.2339C0.965569 17.2339 5.02924 16.5357 9.32849 16.5357ZM9.32849 15.9539C5.02924 15.9539 0.965571 16.7102 0.847784 16.7102L0.435529 16.7684L0.376631 17.1757C0.317738 17.583 -0.919031 26.9504 1.43672 32.2451C3.49801 36.8997 10.0352 44.289 18.9871 44.289C20.9895 44.289 23.1096 43.8817 25.112 43.1253C26.4666 44.3471 30.8836 48.129 31.1192 48.3036L31.2959 48.42H31.5315H34.8884H35.0651L35.2418 48.3036C36.5963 47.3145 38.1865 46.209 39.4821 45.3362C40.1888 44.8708 40.7778 44.4635 41.19 44.1726C43.7814 45.5108 46.4905 46.209 49.1996 46.209C57.2681 46.209 63.7464 40.3325 66.1021 36.3761C69.0468 31.4305 69.1057 21.9467 69.1057 21.5976V21.1903L68.6935 21.074C68.4579 21.0158 62.1562 18.9794 56.738 18.9794C55.5012 18.9794 54.3823 19.0957 53.3811 19.3285C50.6131 19.9685 46.196 22.0049 42.7802 25.6704C40.0122 28.5796 37.0675 33.5251 38.3042 40.4489C37.892 40.7398 37.4208 41.0889 36.8319 41.5544C35.8307 42.3107 34.5939 43.2998 33.2983 44.2308C32.0026 43.0089 30.5892 41.7871 29.588 40.8562C29.1168 40.4489 28.7635 40.0998 28.4101 39.8089C30.5892 33.0596 28.2923 27.8232 25.9365 24.5649C22.9919 20.4921 18.8693 17.9321 16.2191 16.943C14.4522 16.303 12.1554 15.9539 9.32849 15.9539Z" fill="#2B2BD9"></path><path d="M68.5177 21.7139L33.1814 46.9653L1.02539 17.4083C1.02539 17.4083 10.7429 15.6046 16.1022 17.5829C21.4615 19.5611 32.0035 27.8812 27.8221 40.0415C28.8822 41.0306 33.1814 44.9289 33.1814 44.9289C33.1814 44.9289 37.834 41.3797 38.8941 40.6233C36.3617 27.9976 47.9637 21.2484 53.5587 19.9684C59.1536 18.6883 68.5177 21.7139 68.5177 21.7139Z" fill="white"></path></g><defs><clipPath id="clip0_5169_283"><rect width="69.4468" height="48" fill="white"></rect></clipPath></defs></svg>