<svg xmlns="http://www.w3.org/2000/svg" width="100" height="48" viewBox="0 0 100 48" fill="none"><path fill-rule="evenodd" clip-rule="evenodd" d="M66.1794 3H67.9042V14.2036L98 29.2504L97.1677 30.7134L67.9042 16.0827V44.2469H74.0451V45.932H66.1794V15.2203L50.5 7.38121L3.8323 30.7134L3 29.2504L50.5 5.50216L66.1794 13.3413V3ZM55.3642 34.4984H56.1726L62.4286 42.8133V34.4984H64.1381V45.932H63.4796V45.956L63.4616 45.932H62.6452L56.374 37.5887V45.932H54.6492V34.4984H55.323V34.4434L55.3642 34.4984ZM24.602 34.4984H25.4103L31.6663 42.8133V34.4984H33.3758V45.932H32.7173V45.956L32.6993 45.932H31.8829L25.6117 37.5887V45.932H23.8869V34.4984H24.5607V34.4434L24.602 34.4984ZM48.0002 34.4984H48.7219L54.0153 45.932H52.1229L50.9131 43.3206H45.0618L43.852 45.932H41.9596L47.253 34.4984H47.9747L47.9875 34.471L48.0002 34.4984ZM50.152 41.6354L47.9875 36.9676L45.8229 41.6354H50.152ZM3.20425 34.4984H8.36985C9.13153 34.4984 9.82365 34.645 10.4309 34.9561C11.0459 35.2659 11.5309 35.7094 11.8704 36.285C12.2094 36.8599 12.3716 37.5126 12.3716 38.2269C12.3716 38.9412 12.2094 39.594 11.8704 40.1688L11.868 40.1729C11.529 40.7359 11.0508 41.1727 10.4481 41.4819C10.1505 41.6346 9.83251 41.7477 9.49594 41.8234L13.4053 45.932H11.0842L7.28633 41.9406H4.92907V45.932H3.20425V34.4984ZM13.8821 34.4984H22.2837V36.1687H15.6069V39.3207H21.9621V40.991H15.6069V44.2617H22.4828V45.932H13.8821V34.4984ZM34.1001 34.4984H43.7116V36.1835H39.7606V45.932H38.0511V36.1835H34.1001V34.4984ZM74.8233 34.4984H76.5482V45.932H74.8233V34.4984ZM77.2679 34.4984H79.1285L81.6839 40.5004L81.6844 40.5016L82.8694 43.3035L86.594 34.4984H88.4555L83.6005 45.932H82.8981L82.8693 46L82.8406 45.932H82.1229L77.2679 34.4984ZM89.195 34.4984H97.5967V36.1687H90.9198V39.3207H97.2751V40.991H90.9198V44.2617H97.7957V45.932H89.195V34.4984ZM4.92907 36.1835V40.2703H8.36985C9.12959 40.2703 9.66819 40.0668 10.0481 39.7136L10.052 39.7101C10.4384 39.3581 10.6468 38.8832 10.6468 38.2269C10.6468 37.5707 10.4384 37.0957 10.052 36.7438L10.0481 36.7402C9.66817 36.3871 9.12959 36.1835 8.36985 36.1835H4.92907Z" fill="white"></path></svg>