<svg xmlns="http://www.w3.org/2000/svg" width="17" height="17" viewBox="0 0 17 17" fill="none"><path fill-rule="evenodd" clip-rule="evenodd" d="M7 14C9.20914 14 11 12.2091 11 10C11 7.79086 9.20914 6 7 6C4.79086 6 3 7.79086 3 10C3 12.2091 4.79086 14 7 14ZM10.3555 3.85513C9.35917 3.30995 8.21578 3 7 3C3.13401 3 0 6.13401 0 10C0 13.866 3.13401 17 7 17C10.866 17 14 13.866 14 10C14 8.78422 13.6901 7.64083 13.1449 6.64454C12.5016 5.46907 11.5309 4.49837 10.3555 3.85513ZM13 1.99927C13 1.99951 13 1.99976 13 2C13 3.10457 13.8954 4 15 4C15.0002 4 15.0005 4 15.0007 4C16.105 3.9996 17 3.10433 17 2C17 0.89543 16.1046 0 15 0C13.8957 0 13.0004 0.895034 13 1.99927ZM15 1C14.4477 1 14 1.44772 14 2C14 2.55228 14.4477 3 15 3C15.5523 3 16 2.55228 16 2C16 1.44772 15.5523 1 15 1Z" fill="black"></path></svg>