<svg width="24" height="24" viewBox="0 0 24 24" fill="none" xmlns="http://www.w3.org/2000/svg"><path d="M21.883 6.468C21.422 4.48 19.659 3 17.556 3H6.444C4.341 3 2.578 4.48 2.118 6.468m19.764 0c.077.331.118.677.118 1.032v9c0 .559-.1 1.094-.284 1.587m.166-11.62l-6.549 5.158M2.118 6.468A4.567 4.567 0 002 7.5v9c0 .559.1 1.094.284 1.587m-.166-11.62l6.549 5.158m0 0l1.969 1.55a2.2 2.2 0 002.728 0l1.97-1.55m-6.667 0l-6.383 6.462m0 0C2.918 19.79 4.542 21 6.444 21h11.112c1.902 0 3.526-1.21 4.16-2.913m-6.383-6.462l6.383 6.462" stroke="#fff" stroke-width="2" stroke-linecap="round" stroke-linejoin="round"/></svg>