<svg width="22" height="22" viewBox="0 0 22 22" fill="none" xmlns="http://www.w3.org/2000/svg"><path d="M14.787 13h2.703a2 2 0 011.91 1.403l1.452 4.65A1.5 1.5 0 0119.421 21H2.5a1.5 1.5 0 01-1.432-1.947l1.453-4.65A2 2 0 014.432 13h2.702m7.653 0c1.217-1.789 2.174-3.705 2.174-5.559 0-3.557-2.686-6.441-6-6.441s-6 2.884-6 6.441c0 1.854.956 3.77 2.173 5.559m7.653 0c-.823 1.21-1.765 2.361-2.612 3.396l-.027.033a1.52 1.52 0 01-2.374 0l-.028-.033C8.9 15.36 7.957 14.21 7.134 13m5.827-6a2 2 0 11-4 0 2 2 0 014 0z" stroke="#fff" stroke-width="2" stroke-linecap="round" stroke-linejoin="round"/></svg>