<svg width="48" height="48" viewBox="0 0 48 48" fill="none" xmlns="http://www.w3.org/2000/svg">
<path d="M33.4737 42.5714V40.7429C33.4737 35.6934 29.35 31.6 24.2632 31.6H13.2105C8.12369 31.6 4 35.6934 4 40.7429V42.5714M44 42.5714V40.7429C44 37.5231 42.3234 34.6921 39.7895 33.0632M33.4737 7.0091C36.4429 8.52673 38.4737 11.5994 38.4737 15.1429C38.4737 18.015 37.1395 20.5778 35.0528 22.254M27.9474 15.1429C27.9474 20.1923 23.8237 24.2857 18.7368 24.2857C13.65 24.2857 9.52632 20.1923 9.52632 15.1429C9.52632 10.0934 13.65 6 18.7368 6C23.8237 6 27.9474 10.0934 27.9474 15.1429Z" stroke="white" stroke-width="3" stroke-linecap="square" stroke-linejoin="round"/>
</svg>
