<svg width="394" height="373" viewBox="0 0 394 373" fill="none" xmlns="http://www.w3.org/2000/svg">
<rect x="-1.8953" y="2.64148" width="325.584" height="325.584" rx="2" transform="matrix(-0.000481144 1 -0.947167 0.320741 313.99 4.0958)" stroke="white" stroke-width="4" stroke-linejoin="round"/>
<rect x="-1.8953" y="2.64148" width="325.584" height="325.584" rx="2" transform="matrix(-0.000481144 1 -0.947167 0.320741 348.115 28.5821)" stroke="white" stroke-width="4" stroke-linejoin="round"/>
<rect x="-1.8953" y="2.64148" width="325.584" height="325.584" rx="2" transform="matrix(-0.000481144 1 -0.947167 0.320741 382.24 53.0675)" stroke="white" stroke-width="4" stroke-linejoin="round"/>
<rect x="-1.8953" y="2.64148" width="325.584" height="325.584" rx="2" transform="matrix(-0.000481144 1 -0.947167 0.320741 416.364 77.5519)" stroke="white" stroke-width="4" stroke-linejoin="round"/>
<rect x="-1.8953" y="2.64148" width="325.584" height="325.584" rx="2" transform="matrix(-0.000481144 1 -0.947167 0.320741 450.487 102.037)" stroke="white" stroke-width="4" stroke-linejoin="round"/>
<rect x="-1.8953" y="2.64148" width="325.584" height="325.584" rx="2" transform="matrix(-0.000481144 1 -0.947167 0.320741 484.614 126.52)" stroke="white" stroke-width="4" stroke-linejoin="round"/>
<rect x="-1.8953" y="2.64148" width="325.584" height="325.584" rx="2" transform="matrix(-0.000481144 1 -0.947167 0.320741 518.737 151.007)" stroke="white" stroke-width="4" stroke-linejoin="round"/>
<rect x="-1.8953" y="2.64148" width="325.584" height="325.584" rx="2" transform="matrix(-0.000481144 1 -0.947167 0.320741 552.862 175.489)" stroke="white" stroke-width="4" stroke-linejoin="round"/>
<rect x="-1.8953" y="2.64148" width="325.584" height="325.584" rx="2" transform="matrix(-0.000481144 1 -0.947167 0.320741 586.987 199.977)" stroke="white" stroke-width="4" stroke-linejoin="round"/>
</svg>
