<svg width="587" height="632" viewBox="0 0 587 632" fill="none" xmlns="http://www.w3.org/2000/svg">
<mask id="path-1-inside-1_949_3747" fill="white">
<rect width="329.584" height="329.584" rx="4" transform="matrix(-0.000481144 1 -0.947167 0.320741 313.385 0.40625)"/>
</mask>
<rect width="329.584" height="329.584" rx="4" transform="matrix(-0.000481144 1 -0.947167 0.320741 313.385 0.40625)" stroke="white" stroke-width="10" stroke-linejoin="round" mask="url(#path-1-inside-1_949_3747)"/>
<mask id="path-2-inside-2_949_3747" fill="white">
<rect width="329.584" height="329.584" rx="4" transform="matrix(-0.000481144 1 -0.947167 0.320741 347.51 24.8926)"/>
</mask>
<rect width="329.584" height="329.584" rx="4" transform="matrix(-0.000481144 1 -0.947167 0.320741 347.51 24.8926)" stroke="white" stroke-width="10" stroke-linejoin="round" mask="url(#path-2-inside-2_949_3747)"/>
<mask id="path-3-inside-3_949_3747" fill="white">
<rect width="329.584" height="329.584" rx="4" transform="matrix(-0.000481144 1 -0.947167 0.320741 381.635 49.3779)"/>
</mask>
<rect width="329.584" height="329.584" rx="4" transform="matrix(-0.000481144 1 -0.947167 0.320741 381.635 49.3779)" stroke="white" stroke-width="10" stroke-linejoin="round" mask="url(#path-3-inside-3_949_3747)"/>
<mask id="path-4-inside-4_949_3747" fill="white">
<rect width="329.584" height="329.584" rx="4" transform="matrix(-0.000481144 1 -0.947167 0.320741 415.758 73.8623)"/>
</mask>
<rect width="329.584" height="329.584" rx="4" transform="matrix(-0.000481144 1 -0.947167 0.320741 415.758 73.8623)" stroke="white" stroke-width="10" stroke-linejoin="round" mask="url(#path-4-inside-4_949_3747)"/>
<mask id="path-5-inside-5_949_3747" fill="white">
<rect width="329.584" height="329.584" rx="4" transform="matrix(-0.000481144 1 -0.947167 0.320741 449.881 98.3477)"/>
</mask>
<rect width="329.584" height="329.584" rx="4" transform="matrix(-0.000481144 1 -0.947167 0.320741 449.881 98.3477)" stroke="white" stroke-width="10" stroke-linejoin="round" mask="url(#path-5-inside-5_949_3747)"/>
<mask id="path-6-inside-6_949_3747" fill="white">
<rect width="329.584" height="329.584" rx="4" transform="matrix(-0.000481144 1 -0.947167 0.320741 484.008 122.83)"/>
</mask>
<rect width="329.584" height="329.584" rx="4" transform="matrix(-0.000481144 1 -0.947167 0.320741 484.008 122.83)" stroke="white" stroke-width="10" stroke-linejoin="round" mask="url(#path-6-inside-6_949_3747)"/>
<mask id="path-7-inside-7_949_3747" fill="white">
<rect width="329.584" height="329.584" rx="4" transform="matrix(-0.000481144 1 -0.947167 0.320741 518.131 147.317)"/>
</mask>
<rect width="329.584" height="329.584" rx="4" transform="matrix(-0.000481144 1 -0.947167 0.320741 518.131 147.317)" stroke="white" stroke-width="10" stroke-linejoin="round" mask="url(#path-7-inside-7_949_3747)"/>
<mask id="path-8-inside-8_949_3747" fill="white">
<rect width="329.584" height="329.584" rx="4" transform="matrix(-0.000481144 1 -0.947167 0.320741 552.256 171.8)"/>
</mask>
<rect width="329.584" height="329.584" rx="4" transform="matrix(-0.000481144 1 -0.947167 0.320741 552.256 171.8)" stroke="white" stroke-width="10" stroke-linejoin="round" mask="url(#path-8-inside-8_949_3747)"/>
<mask id="path-9-inside-9_949_3747" fill="white">
<rect width="329.584" height="329.584" rx="4" transform="matrix(-0.000481144 1 -0.947167 0.320741 586.381 196.287)"/>
</mask>
<rect width="329.584" height="329.584" rx="4" transform="matrix(-0.000481144 1 -0.947167 0.320741 586.381 196.287)" stroke="white" stroke-width="10" stroke-linejoin="round" mask="url(#path-9-inside-9_949_3747)"/>
</svg>
