<svg width="14" height="14" viewBox="0 0 14 14" fill="none" xmlns="http://www.w3.org/2000/svg">
<path d="M14 8.58372V14H10.9998V8.94558C10.9998 7.67685 10.5658 6.81101 9.4794 6.81101C8.6506 6.81101 8.1564 7.3941 7.9394 7.95961C7.861 8.16178 7.84 8.44307 7.84 8.72436V14H4.8384C4.8384 14 4.879 5.44119 4.8384 4.55484H7.84V5.89242L7.8204 5.92319H7.84V5.89242C8.239 5.2478 8.9502 4.33215 10.5448 4.33215C12.5188 4.33215 14 5.68292 14 8.58372ZM1.6982 0C0.672 0 0 0.706154 0 1.63206C0 2.54039 0.6524 3.26559 1.659 3.26559H1.6786C2.7258 3.26559 3.3768 2.53893 3.3768 1.63206C3.3572 0.706154 2.7258 0 1.6982 0ZM0.1778 14H3.1794V4.55484H0.1778V14Z" fill="black"/>
</svg>
