<svg width="22" height="22" viewBox="0 0 22 22" fill="none" xmlns="http://www.w3.org/2000/svg">
<path d="M14.7872 13H17.4904C18.3651 13 19.1384 13.5685 19.3993 14.4035L20.8522 19.0526C21.154 20.0185 20.4324 21 19.4205 21H2.50105C1.48909 21 0.767483 20.0185 1.06933 19.0526L2.52218 14.4035C2.7831 13.5685 3.55637 13 4.43114 13H7.13428M14.7872 13C16.0044 11.211 16.9608 9.29465 16.9608 7.44143C16.9608 3.88393 14.2745 1 10.9608 1C7.64705 1 4.96076 3.88393 4.96076 7.44143C4.96076 9.29465 5.91715 11.211 7.13428 13M14.7872 13C13.9641 14.2099 13.0217 15.3615 12.1752 16.3959L12.1478 16.4294C11.5252 17.1902 10.3963 17.1902 9.77374 16.4294L9.74632 16.3959C8.89983 15.3615 7.95743 14.2099 7.13428 13M12.9608 7C12.9608 8.10457 12.0653 9 10.9608 9C9.85619 9 8.96076 8.10457 8.96076 7C8.96076 5.89543 9.85619 5 10.9608 5C12.0653 5 12.9608 5.89543 12.9608 7Z" stroke="white" stroke-width="2" stroke-linecap="round" stroke-linejoin="round"/>
</svg>
