<svg width="36" height="36" viewBox="0 0 36 36" fill="none" xmlns="http://www.w3.org/2000/svg"><path d="M25.111 21.465a5.129 5.129 0 011.928.925l2.827 2.182c1.69 1.303 4.134.096 4.134-2.042V7.152C34 4.307 31.7 2 28.864 2h-12.84c-2.836 0-5.135 2.307-5.135 5.152v3.737M25.11 21.465v-5.424c0-2.845-2.3-5.152-5.136-5.152H10.89m14.22 10.576v3.593c0 2.846-2.3 5.152-5.136 5.152h-7.883a5.125 5.125 0 00-3.13 1.069L6.133 33.46C4.444 34.764 2 33.557 2 31.419V16.041c0-2.845 2.3-5.152 5.136-5.152h3.753" stroke="#fff" stroke-width="3" stroke-linecap="round" stroke-linejoin="round"/></svg>