<svg width="36" height="36" viewBox="0 0 36 36" fill="none" xmlns="http://www.w3.org/2000/svg"><path d="M11.098 10.757V5.865a.882.882 0 00-.253-.619l-2.946-2.99A.856.856 0 007.289 2H3.332a.87.87 0 00-.863.876V6.89c0 .232.091.455.253.62l2.946 2.99a.857.857 0 00.61.256h4.82zm0 0l4.721 4.792M18 22.115L7.177 33.099a3.001 3.001 0 01-4.289 0 3.11 3.11 0 010-4.353l12.557-12.744c.14-.142.264-.293.374-.453M18 22.115l1.734-1.76c1.016-1.031 2.55-1.245 3.971-1.035l.138.019M18 22.115l10.823 10.984a3.001 3.001 0 004.289 0 3.11 3.11 0 000-4.353l-9.269-9.407m0 0a8.47 8.47 0 001.11.072c4.737 0 8.578-3.897 8.578-8.705 0-.831-.115-1.635-.33-2.396-.165-.589-.884-.725-1.31-.293l-2.292 2.326a3.001 3.001 0 01-4.289 0 3.11 3.11 0 010-4.353l2.291-2.325c.427-.433.292-1.163-.288-1.331A8.466 8.466 0 0024.953 2c-4.738 0-8.578 3.898-8.578 8.706 0 .43.03.852.09 1.266.178 1.244.046 2.573-.646 3.577" stroke="#fff" stroke-width="3" stroke-linecap="round"/></svg>