<svg width="201" height="233" viewBox="0 0 201 233" fill="none" xmlns="http://www.w3.org/2000/svg">
<path d="M64.2628 185.455V186.046C64.2628 193.428 69.0452 198.744 76.5176 199.335L174.855 207.603V233L68.1485 223.845C60.6761 223.255 55.8937 217.939 55.8937 210.261V182.797C22.4173 170.985 0 143.521 0 95.09C0 26.8733 44.5356 0 100.429 0C156.323 0 200.261 26.8733 200.261 95.09C200.261 167.736 156.024 188.113 93.5547 189.885C83.0933 189.294 73.2297 187.818 64.2628 185.455ZM100.429 166.555C141.976 166.555 173.36 147.951 173.36 95.09C173.36 42.2294 141.976 23.6248 100.429 23.6248C58.5838 23.6248 26.9007 41.9341 26.9007 95.09C26.9007 148.246 58.5838 166.555 100.429 166.555Z" fill="black"/>
</svg>
